<svg xmlns="http://www.w3.org/2000/svg" width="3600" height="600" viewBox="4 0 654 109">
<title>Hawaiʻi Co-op Hui brush-stroke wave</title>
<path fill="#0a7473" fill-rule="evenodd" d="M4.020,7.856 C4.450,7.570 4.028,7.033 6.622,7.460 C9.215,7.887 13.281,8.399 19.583,10.417 C25.886,12.434 38.655,17.678 44.436,19.564 C50.216,21.450 50.052,21.115 54.266,21.734 C58.481,22.352 66.700,22.872 69.721,23.274 C72.743,23.676 71.934,23.860 72.396,24.146 C72.859,24.432 72.921,24.707 72.495,24.990 C72.069,25.273 70.910,25.688 69.839,25.844 C68.768,26.000 68.830,26.112 66.068,25.927 C63.306,25.742 56.745,25.254 53.266,24.734 C49.788,24.213 47.837,23.496 45.196,22.804 C42.555,22.112 41.767,22.233 37.419,20.581 C33.071,18.929 24.473,14.689 19.110,12.890 C13.747,11.090 7.751,10.402 5.241,9.783 C2.730,9.164 4.250,9.496 4.047,9.175 C3.843,8.854 3.591,8.142 4.020,7.856 Z"/>
<path fill="#113137" fill-rule="evenodd" d="M575.785,11.563 C576.405,11.329 576.833,11.120 579.031,11.031 C581.229,10.942 585.354,10.823 588.971,11.029 C592.589,11.234 596.804,11.696 600.736,12.264 C604.668,12.832 607.761,13.131 612.564,14.436 C617.368,15.741 625.940,19.184 629.557,20.093 C633.174,21.002 633.233,19.720 634.266,19.889 C635.299,20.059 635.206,20.328 635.755,21.110 C636.304,21.892 634.660,22.125 637.560,24.581 C640.459,27.037 649.911,33.365 653.153,35.847 C656.394,38.330 656.424,38.735 657.011,39.475 C657.597,40.214 657.003,40.216 656.672,40.285 C656.342,40.354 658.256,41.822 655.029,39.889 C651.803,37.956 643.560,31.927 637.312,28.688 C631.064,25.450 624.138,22.695 617.542,20.458 C610.945,18.221 603.515,16.485 597.734,15.266 C591.952,14.048 586.419,13.553 582.854,13.146 C579.288,12.740 577.596,12.943 576.340,12.825 C575.083,12.707 575.406,12.647 575.313,12.437 C575.221,12.227 575.165,11.797 575.785,11.563 Z"/>
<path fill="#113137" fill-rule="evenodd" d="M561.388,13.445 C565.755,13.361 576.008,13.801 580.854,14.146 C585.699,14.491 588.609,15.119 590.460,15.516 C592.311,15.912 591.720,16.241 591.961,16.525 C592.201,16.809 594.892,17.303 591.903,17.220 C588.914,17.138 578.986,16.043 574.026,16.031 C569.067,16.019 565.245,16.746 562.146,17.146 C559.048,17.547 558.057,17.724 555.436,18.436 C552.815,19.148 550.094,19.965 546.419,21.419 C542.744,22.873 535.785,26.210 533.384,27.162 C530.982,28.114 532.119,27.385 532.008,27.132 C531.898,26.879 531.322,26.761 532.723,25.641 C534.124,24.522 538.252,21.739 540.417,20.417 C542.581,19.095 543.338,18.671 545.711,17.711 C548.083,16.750 552.041,15.364 554.653,14.653 C557.266,13.943 557.021,13.530 561.388,13.445 Z"/>
<path fill="#113137" fill-rule="evenodd" d="M124.419,14.419 C127.671,14.028 132.069,13.904 134.930,14.070 C137.790,14.236 139.306,14.742 141.583,15.417 C143.860,16.091 146.775,17.576 148.591,18.117 C150.406,18.657 150.960,17.798 152.478,18.662 C153.996,19.526 155.586,22.104 157.698,23.302 C159.810,24.500 161.958,25.428 165.149,25.851 C168.340,26.275 172.178,26.461 176.844,25.844 C181.510,25.226 188.333,22.741 193.146,22.146 C197.960,21.551 201.872,21.677 205.726,22.274 C209.580,22.871 212.881,24.119 216.270,25.730 C219.660,27.340 222.444,30.065 226.063,31.937 C229.681,33.809 235.040,36.046 237.981,36.962 C240.922,37.877 242.002,36.962 243.710,37.431 C245.417,37.900 245.948,39.275 248.226,39.774 C250.504,40.272 255.744,40.204 257.377,40.420 C259.011,40.636 258.070,40.773 258.027,41.070 C257.985,41.367 258.336,41.759 257.121,42.202 C255.906,42.646 253.468,43.550 250.738,43.734 C248.008,43.917 242.446,43.256 240.740,43.302 C239.035,43.348 240.146,43.709 240.505,44.010 C240.864,44.311 240.834,44.639 242.897,45.108 C244.960,45.577 249.974,46.785 252.882,46.825 C255.791,46.865 257.932,46.052 260.347,45.347 C262.761,44.641 265.935,43.011 267.369,42.591 C268.803,42.170 268.660,42.654 268.950,42.826 C269.239,42.998 269.281,43.271 269.107,43.622 C268.933,43.972 269.213,44.157 267.906,44.930 C266.598,45.703 264.345,47.491 261.261,48.261 C258.176,49.030 253.021,49.842 249.398,49.545 C245.775,49.247 241.518,47.273 239.524,46.476 C237.530,45.679 237.949,45.487 237.436,44.761 C236.923,44.035 238.273,43.660 236.447,42.120 C234.621,40.580 228.677,37.084 226.480,35.520 C224.282,33.957 224.579,33.588 223.263,32.737 C221.947,31.886 220.729,31.271 218.583,30.417 C216.438,29.562 213.012,28.321 210.390,27.610 C207.769,26.898 205.394,26.390 202.854,26.146 C200.313,25.903 197.715,25.930 195.146,26.146 C192.578,26.363 192.180,26.346 187.443,27.443 C182.706,28.540 171.775,31.825 166.726,32.726 C161.677,33.628 159.533,33.042 157.149,32.851 C154.764,32.660 154.110,32.223 152.419,31.581 C150.728,30.939 149.081,30.253 147.002,28.998 C144.924,27.743 142.121,25.379 139.949,24.051 C137.777,22.723 136.296,21.822 133.971,21.029 C131.647,20.236 129.951,19.254 126.000,19.293 C122.049,19.332 113.689,20.714 110.264,21.264 C106.839,21.814 103.895,21.731 105.448,22.591 C107.000,23.450 115.712,25.127 119.581,26.419 C123.450,27.711 125.519,28.814 128.659,30.341 C131.800,31.867 135.066,34.100 138.424,35.576 C141.782,37.051 146.054,38.470 148.806,39.194 C151.559,39.918 152.616,39.995 154.939,39.920 C157.263,39.845 160.481,39.144 162.746,38.746 C165.011,38.347 166.991,38.158 168.529,37.529 C170.067,36.900 170.653,35.653 171.972,34.972 C173.291,34.291 172.791,34.076 176.443,33.443 C180.095,32.810 189.527,31.345 193.882,31.175 C198.237,31.006 199.558,31.785 202.574,32.426 C205.589,33.068 208.972,33.861 211.974,35.026 C214.975,36.191 217.072,37.262 220.583,39.417 C224.095,41.572 230.032,46.135 233.044,47.956 C236.056,49.777 236.663,49.837 238.656,50.344 C240.649,50.851 241.884,50.987 245.002,50.998 C248.120,51.008 255.224,50.426 257.364,50.407 C259.504,50.388 257.927,50.630 257.843,50.886 C257.758,51.141 257.953,51.375 256.858,51.939 C255.763,52.504 253.751,53.599 251.270,54.270 C248.790,54.942 244.444,55.755 241.974,55.969 C239.503,56.183 238.486,56.004 236.445,55.555 C234.405,55.105 234.041,55.792 229.730,53.270 C225.418,50.749 214.866,42.968 210.576,40.424 C206.286,37.881 206.619,38.691 203.990,38.010 C201.362,37.328 198.068,36.433 194.806,36.334 C191.544,36.236 190.125,36.213 184.419,37.419 C178.714,38.626 166.124,42.379 160.574,43.574 C155.023,44.769 153.806,44.592 151.118,44.589 C148.429,44.587 146.558,44.060 144.443,43.557 C142.328,43.054 140.594,42.572 138.426,41.574 C136.259,40.575 133.873,39.127 131.436,37.564 C128.999,36.001 127.402,33.765 123.805,32.195 C120.208,30.626 113.476,28.834 109.854,28.146 C106.231,27.459 105.334,27.882 102.070,28.070 C98.807,28.258 95.022,28.188 90.274,29.274 C85.526,30.359 77.320,33.487 73.583,34.583 C69.847,35.680 71.106,35.629 67.854,35.854 C64.601,36.078 57.502,36.116 54.070,35.930 C50.639,35.744 49.991,35.509 47.264,34.736 C44.538,33.962 42.991,33.509 37.711,31.289 C32.431,29.069 20.975,23.521 15.583,21.417 C10.191,19.313 7.301,19.304 5.358,18.666 C3.416,18.027 4.067,17.945 3.929,17.586 C3.792,17.226 4.084,16.697 4.534,16.509 C4.983,16.321 4.654,16.102 6.624,16.457 C8.594,16.813 10.093,16.587 16.356,18.644 C22.619,20.700 38.739,26.928 44.204,28.796 C49.669,30.665 46.867,29.555 49.146,29.854 C51.426,30.152 54.476,30.801 57.882,30.589 C61.288,30.378 66.485,29.259 69.583,28.583 C72.682,27.907 74.691,27.272 76.475,26.532 C78.259,25.793 76.918,24.951 80.287,24.146 C83.655,23.342 93.339,22.462 96.685,21.705 C100.032,20.947 98.860,19.935 100.365,19.601 C101.871,19.266 103.208,20.228 105.717,19.698 C108.225,19.167 112.300,17.296 115.417,16.417 C118.534,15.537 121.167,14.810 124.419,14.419 Z M148.224,21.653 C145.687,20.836 149.389,22.929 150.421,23.583 C151.454,24.238 152.622,24.879 154.419,25.581 C156.216,26.283 159.334,27.313 161.204,27.796 C163.074,28.280 167.803,29.508 165.639,28.484 C163.476,27.460 150.760,22.470 148.224,21.653 Z"/>
<path fill="#22a09d" fill-rule="evenodd" d="M389.417,15.417 C393.397,14.985 395.914,15.058 398.736,15.264 C401.558,15.470 403.860,15.973 406.347,16.653 C408.833,17.334 411.518,18.316 413.652,19.348 C415.787,20.380 417.220,21.280 419.153,22.847 C421.085,24.415 422.029,25.147 425.248,28.752 C428.467,32.357 435.632,41.595 438.466,44.477 C441.299,47.359 440.870,45.246 442.248,46.045 C443.626,46.843 445.126,48.423 446.732,49.268 C448.338,50.113 448.873,50.546 451.885,51.115 C454.897,51.684 462.649,52.312 464.804,52.681 C466.959,53.050 465.111,53.101 464.814,53.329 C464.517,53.557 465.164,53.607 463.023,54.048 C460.883,54.488 455.117,55.670 451.971,55.971 C448.825,56.272 446.784,56.207 444.146,55.854 C441.509,55.501 438.723,54.777 436.146,53.854 C433.570,52.930 430.417,51.249 428.688,50.312 C426.959,49.374 427.502,49.831 425.771,48.229 C424.040,46.627 420.558,43.442 418.301,40.699 C416.044,37.956 414.329,34.337 412.229,31.771 C410.128,29.205 407.407,26.760 405.699,25.301 C403.990,23.843 403.836,23.831 401.979,23.021 C400.122,22.212 396.919,21.058 394.557,20.443 C392.195,19.829 392.056,19.255 387.806,19.334 C383.557,19.414 372.881,20.790 369.061,20.920 C365.240,21.050 366.341,20.570 364.885,20.115 C363.429,19.660 361.098,18.604 360.324,18.191 C359.550,17.778 360.115,17.761 360.241,17.636 C360.366,17.510 360.111,17.383 361.076,17.439 C362.040,17.495 363.732,17.902 366.029,17.971 C368.325,18.040 370.956,18.279 374.854,17.854 C378.752,17.428 385.436,15.848 389.417,15.417 Z"/>
<path fill="#22a09d" fill-rule="evenodd" d="M393.018,22.858 C393.375,22.763 393.996,22.565 395.151,22.930 C396.306,23.296 398.813,24.404 399.946,25.054 C401.080,25.703 401.598,26.326 401.950,26.828 C402.302,27.330 402.259,27.865 402.059,28.064 C401.860,28.263 402.035,28.593 400.755,28.023 C399.476,27.452 395.674,25.394 394.384,24.640 C393.093,23.887 393.238,23.801 393.011,23.504 C392.783,23.207 392.661,22.954 393.018,22.858 Z"/>
<path fill="#113137" fill-rule="evenodd" d="M561.417,23.417 C567.285,22.834 575.326,22.979 579.854,23.146 C584.381,23.313 585.090,23.743 588.581,24.419 C592.071,25.095 595.678,25.655 600.796,27.204 C605.915,28.752 613.089,31.245 619.289,33.711 C625.490,36.177 634.235,40.278 638.000,42.000 C641.765,43.722 641.082,43.482 641.877,44.042 C642.672,44.601 642.968,45.155 642.769,45.355 C642.570,45.554 642.958,45.981 640.682,45.237 C638.405,44.493 633.960,42.526 629.110,40.890 C624.261,39.253 617.477,37.023 611.583,35.417 C605.689,33.811 600.020,32.311 593.746,31.254 C587.472,30.198 579.353,29.245 573.939,29.080 C568.526,28.915 565.533,29.390 561.266,30.266 C557.000,31.143 552.270,32.770 548.341,34.341 C544.411,35.911 540.847,37.847 537.688,39.688 C534.529,41.529 531.395,44.134 529.388,45.388 C527.381,46.643 526.516,46.404 525.649,47.215 C524.781,48.027 525.672,48.510 524.181,50.258 C522.690,52.005 520.039,54.885 516.701,57.701 C513.363,60.517 507.384,64.884 504.153,67.153 C500.922,69.422 500.461,69.628 497.314,71.314 C494.167,73.000 488.089,76.096 485.270,77.270 C482.452,78.444 481.290,78.451 480.401,78.358 C479.513,78.266 479.803,77.407 479.938,76.717 C480.074,76.026 479.827,75.456 481.217,74.217 C482.607,72.977 485.955,70.955 488.278,69.278 C490.600,67.600 492.314,66.471 495.153,64.153 C497.991,61.834 503.412,57.163 505.308,55.366 C507.204,53.568 506.244,54.094 506.530,53.368 C506.816,52.642 507.005,51.457 507.024,51.009 C507.043,50.562 509.339,49.208 506.642,50.681 C503.946,52.154 495.929,56.269 490.847,59.847 C485.766,63.426 479.395,69.562 476.153,72.153 C472.910,74.743 473.823,74.157 471.390,75.390 C468.957,76.624 464.774,78.656 461.555,79.555 C458.336,80.453 454.921,80.790 452.076,80.783 C449.231,80.777 447.990,80.820 444.485,79.515 C440.979,78.211 433.971,74.515 431.044,72.956 C428.116,71.397 427.724,70.878 426.919,70.162 C426.114,69.447 425.980,68.896 426.212,68.664 C426.444,68.432 426.678,68.216 428.311,68.770 C429.944,69.325 432.883,71.130 436.010,71.990 C439.136,72.850 444.116,73.639 447.070,73.930 C450.025,74.221 451.143,74.120 453.736,73.736 C456.328,73.352 459.320,72.820 462.625,71.625 C465.929,70.429 469.526,69.193 473.564,66.564 C477.603,63.936 483.584,58.251 486.855,55.855 C490.125,53.458 491.093,53.593 493.187,52.187 C495.281,50.781 494.227,50.394 499.419,47.419 C504.611,44.445 518.553,37.220 524.341,34.341 C530.128,31.461 530.760,31.427 534.144,30.144 C537.528,28.861 540.098,27.765 544.644,26.644 C549.189,25.523 555.548,24.000 561.417,23.417 Z M522.736,48.766 C522.981,48.677 522.981,48.323 522.736,48.234 C522.490,48.145 521.510,48.145 521.264,48.234 C521.019,48.323 521.019,48.677 521.264,48.766 C521.510,48.855 522.490,48.855 522.736,48.766 Z M512.736,52.234 C512.490,52.145 511.510,52.145 511.264,52.234 C511.019,52.323 511.019,52.677 511.264,52.766 C511.510,52.855 512.490,52.855 512.736,52.766 C512.981,52.677 512.981,52.323 512.736,52.234 Z M513.264,51.766 C513.551,51.891 514.068,52.151 514.985,51.985 C515.902,51.818 517.808,51.136 518.766,50.766 C519.725,50.396 520.407,50.021 520.736,49.766 C521.064,49.511 521.022,49.359 520.736,49.234 C520.449,49.109 519.932,48.849 519.015,49.015 C518.098,49.182 516.192,49.864 515.234,50.234 C514.275,50.604 513.593,50.979 513.264,51.234 C512.936,51.489 512.978,51.641 513.264,51.766 Z M509.000,53.970 C509.245,54.058 509.736,53.923 509.736,53.766 C509.736,53.610 509.245,53.119 509.000,53.030 C508.755,52.942 508.264,53.077 508.264,53.234 C508.264,53.390 508.755,53.881 509.000,53.970 Z M510.264,47.766 C510.510,47.855 511.490,47.855 511.736,47.766 C511.981,47.677 511.981,47.323 511.736,47.234 C511.490,47.145 510.510,47.145 510.264,47.234 C510.019,47.323 510.019,47.677 510.264,47.766 Z M514.264,44.766 C514.510,44.855 515.490,44.855 515.736,44.766 C515.981,44.677 515.981,44.323 515.736,44.234 C515.490,44.145 514.510,44.145 514.264,44.234 C514.019,44.323 514.019,44.677 514.264,44.766 Z M499.736,50.766 C499.981,50.677 499.981,50.323 499.736,50.234 C499.490,50.145 498.510,50.145 498.264,50.234 C498.019,50.323 498.019,50.677 498.264,50.766 C498.510,50.855 499.490,50.855 499.736,50.766 Z"/>
<path fill="#22a09d" fill-rule="evenodd" d="M320.417,28.417 C322.665,28.188 325.405,27.900 327.930,28.070 C330.454,28.240 332.971,28.696 335.564,29.436 C338.157,30.176 340.521,31.646 343.489,32.511 C346.458,33.376 350.071,33.596 353.375,34.625 C356.679,35.654 360.113,37.054 363.314,38.686 C366.516,40.318 368.447,41.386 372.583,44.417 C376.719,47.447 384.852,53.981 388.131,56.869 C391.410,59.756 389.210,58.624 392.258,61.742 C395.306,64.861 402.295,72.205 406.419,75.581 C410.543,78.957 413.465,80.202 417.002,81.998 C420.540,83.793 423.802,85.198 427.646,86.354 C431.491,87.509 436.023,88.500 440.070,88.930 C444.117,89.359 448.607,89.083 451.930,88.930 C455.253,88.777 457.175,88.036 460.007,88.012 C462.840,87.988 464.965,88.992 468.924,88.783 C472.883,88.575 478.891,87.782 483.762,86.762 C488.633,85.742 495.631,83.333 498.150,82.664 C500.668,81.996 498.805,82.564 498.874,82.750 C498.943,82.937 499.943,82.644 498.561,83.783 C497.179,84.922 493.348,87.885 490.583,89.583 C487.819,91.282 484.811,92.811 481.974,93.974 C479.136,95.136 476.097,95.930 473.557,96.557 C471.017,97.184 471.491,97.500 466.736,97.736 C461.981,97.972 451.985,98.212 445.029,97.971 C438.073,97.731 429.343,96.460 425.000,96.293 C420.657,96.126 422.427,96.898 418.971,96.971 C415.516,97.045 408.143,97.181 404.266,96.734 C400.390,96.287 399.087,95.746 395.711,94.289 C392.334,92.833 389.600,92.566 384.007,87.993 C378.414,83.419 366.995,71.172 362.153,66.847 C357.311,62.523 357.385,63.449 354.956,62.044 C352.527,60.639 350.342,59.491 347.581,58.419 C344.820,57.347 341.492,56.332 338.388,55.612 C335.284,54.892 332.119,54.130 328.958,54.099 C325.798,54.068 322.729,54.732 319.424,55.424 C316.119,56.116 310.622,58.083 309.128,58.252 C307.634,58.421 309.145,57.308 310.460,56.436 C311.775,55.564 314.385,54.047 317.019,53.019 C319.653,51.991 321.948,50.758 326.266,50.266 C330.585,49.775 338.662,49.760 342.930,50.070 C347.197,50.380 348.472,51.028 351.873,52.127 C355.273,53.227 359.978,55.022 363.331,56.669 C366.684,58.316 369.424,60.243 371.993,62.007 C374.561,63.772 376.365,64.968 378.742,67.258 C381.120,69.547 383.637,73.030 386.258,75.742 C388.878,78.455 391.897,81.437 394.468,83.532 C397.039,85.627 399.529,87.145 401.686,88.314 C403.843,89.484 406.398,90.233 407.408,90.549 C408.418,90.865 407.776,90.377 407.746,90.211 C407.716,90.044 408.558,90.713 407.228,89.550 C405.899,88.386 401.835,85.128 399.771,83.229 C397.708,81.329 396.784,80.550 394.847,78.153 C392.911,75.756 390.055,71.241 388.153,68.847 C386.250,66.454 384.270,64.810 383.431,63.790 C382.593,62.771 382.896,62.968 383.121,62.731 C383.346,62.494 384.599,62.561 384.781,62.367 C384.963,62.172 386.414,63.056 384.214,61.564 C382.015,60.072 376.023,56.107 371.583,53.417 C367.144,50.727 361.076,47.257 357.576,45.424 C354.076,43.591 352.880,43.287 350.583,42.417 C348.287,41.547 345.905,40.761 343.796,40.204 C341.688,39.646 340.551,39.259 337.930,39.070 C335.309,38.881 330.848,38.871 328.070,39.070 C325.293,39.269 324.141,39.308 321.264,40.264 C318.387,41.220 313.967,42.967 310.806,44.806 C307.645,46.645 304.308,49.642 302.299,51.299 C300.290,52.956 301.849,51.849 298.750,54.750 C295.650,57.650 287.716,65.383 283.701,68.701 C279.686,72.019 277.728,72.895 274.659,74.659 C271.591,76.424 267.713,78.213 265.289,79.289 C262.866,80.366 262.540,80.373 260.118,81.118 C257.695,81.862 254.889,82.917 250.755,83.755 C246.620,84.593 238.052,85.679 235.311,86.146 C232.570,86.614 234.399,86.346 234.311,86.561 C234.223,86.776 234.002,87.199 234.785,87.437 C235.568,87.675 236.103,87.941 239.010,87.990 C241.916,88.040 249.960,87.834 252.224,87.734 C254.487,87.633 252.747,87.630 252.593,87.388 C252.439,87.146 251.407,86.558 251.299,86.280 C251.190,86.002 249.417,86.606 251.942,85.720 C254.467,84.834 263.913,81.745 266.451,80.966 C268.989,80.186 267.051,80.927 267.167,81.044 C267.284,81.160 267.383,81.374 267.151,81.666 C266.918,81.957 267.556,81.979 265.771,82.795 C263.986,83.612 257.604,85.912 256.440,86.564 C255.277,87.216 256.772,87.044 258.789,86.707 C260.806,86.370 264.847,85.834 268.542,84.542 C272.236,83.250 275.879,81.879 280.956,78.956 C286.033,76.033 294.759,69.592 299.002,67.002 C303.246,64.413 303.875,64.375 306.419,63.419 C308.963,62.463 310.836,61.832 314.264,61.264 C317.693,60.696 323.292,59.972 326.990,60.010 C330.689,60.047 334.596,60.985 336.453,61.489 C338.310,61.993 337.982,61.821 338.132,63.035 C338.282,64.248 337.631,67.773 337.355,68.769 C337.078,69.765 337.602,69.237 336.472,69.013 C335.343,68.789 333.000,67.915 330.576,67.424 C328.152,66.934 324.668,66.283 321.930,66.070 C319.192,65.857 316.562,65.919 314.146,66.146 C311.731,66.374 309.874,66.707 307.436,67.436 C304.998,68.165 303.060,68.393 299.519,70.519 C295.979,72.646 289.617,77.951 286.194,80.194 C282.771,82.438 281.622,82.789 278.981,83.981 C276.340,85.173 273.414,86.414 270.347,87.347 C267.279,88.279 263.976,88.976 260.574,89.574 C257.171,90.171 253.021,90.697 249.930,90.930 C246.839,91.163 246.049,91.404 242.029,90.971 C238.008,90.539 229.649,88.668 225.806,88.334 C221.963,88.001 223.601,88.865 218.971,88.971 C214.342,89.077 203.154,89.251 198.029,88.971 C192.903,88.692 189.994,87.513 188.220,87.295 C186.445,87.077 187.296,87.486 187.380,87.663 C187.464,87.840 187.431,87.991 188.725,88.356 C190.020,88.721 192.909,89.526 195.146,89.854 C197.384,90.181 199.352,90.290 202.153,90.319 C204.953,90.349 209.861,89.990 211.950,90.031 C214.039,90.072 214.403,90.279 214.687,90.563 C214.971,90.847 214.627,91.354 213.654,91.736 C212.682,92.118 211.791,92.648 208.854,92.854 C205.916,93.059 199.591,93.194 196.029,92.971 C192.466,92.749 190.175,92.325 187.480,91.520 C184.784,90.716 182.789,89.211 179.856,88.144 C176.923,87.077 172.478,85.717 169.880,85.120 C167.282,84.523 166.373,84.539 164.270,84.563 C162.168,84.588 159.660,84.890 157.266,85.266 C154.872,85.643 151.494,86.586 149.906,86.825 C148.319,87.063 148.139,86.835 147.740,86.698 C147.342,86.560 145.564,86.709 147.515,86.000 C149.466,85.291 153.686,83.767 159.445,82.445 C165.205,81.124 176.522,78.767 182.070,78.070 C187.618,77.374 187.338,77.186 192.734,78.266 C198.129,79.347 209.227,83.282 214.445,84.555 C219.663,85.827 219.322,86.200 224.042,85.901 C228.761,85.602 238.332,83.642 242.762,82.762 C247.193,81.883 248.476,81.310 250.625,80.625 C252.773,79.940 253.659,79.659 255.652,78.652 C257.645,77.645 259.987,76.320 262.583,74.583 C265.179,72.846 268.376,70.709 271.229,68.229 C274.082,65.748 275.928,64.261 279.701,59.701 C283.474,55.141 290.678,44.678 293.869,40.869 C297.060,37.060 296.422,38.422 298.847,36.847 C301.272,35.272 305.820,32.653 308.419,31.419 C311.018,30.185 312.443,29.943 314.443,29.443 C316.443,28.943 318.169,28.646 320.417,28.417 Z M294.736,56.766 C294.981,56.677 294.981,56.323 294.736,56.234 C294.490,56.145 293.510,56.145 293.264,56.234 C293.019,56.323 293.019,56.677 293.264,56.766 C293.510,56.855 294.490,56.855 294.736,56.766 Z M287.264,59.766 C287.510,59.855 288.490,59.855 288.736,59.766 C288.981,59.677 288.981,59.323 288.736,59.234 C288.490,59.145 287.510,59.145 287.264,59.234 C287.019,59.323 287.019,59.677 287.264,59.766 Z M289.264,58.766 C289.515,58.855 290.187,58.933 290.766,58.766 C291.345,58.599 292.407,58.021 292.736,57.766 C293.064,57.511 292.986,57.323 292.736,57.234 C292.485,57.145 291.813,57.067 291.234,57.234 C290.655,57.401 289.593,57.979 289.264,58.234 C288.936,58.489 289.014,58.677 289.264,58.766 Z M279.751,64.249 C279.501,64.160 277.679,64.981 277.264,65.234 C276.850,65.487 277.014,65.677 277.264,65.766 C277.515,65.855 278.352,66.019 278.766,65.766 C279.180,65.513 280.001,64.338 279.751,64.249 Z M280.264,63.766 C280.510,63.855 281.490,63.855 281.736,63.766 C281.981,63.677 281.981,63.323 281.736,63.234 C281.490,63.145 280.510,63.145 280.264,63.234 C280.019,63.323 280.019,63.677 280.264,63.766 Z M184.736,86.766 C184.981,86.677 184.981,86.323 184.736,86.234 C184.490,86.145 183.510,86.145 183.264,86.234 C183.019,86.323 183.019,86.677 183.264,86.766 C183.510,86.855 184.490,86.855 184.736,86.766 Z M388.766,64.234 C388.271,63.979 387.515,64.145 387.264,64.234 C387.014,64.323 387.014,64.599 387.264,64.766 C387.515,64.933 388.271,64.901 388.766,65.234 C389.261,65.567 389.739,66.511 390.234,66.766 C390.729,67.021 391.485,66.855 391.736,66.766 C391.986,66.677 391.986,66.401 391.736,66.234 C391.485,66.067 390.729,66.099 390.234,65.766 C389.739,65.433 389.261,64.489 388.766,64.234 Z M394.766,68.234 C394.187,68.067 393.515,68.145 393.264,68.234 C393.014,68.323 392.936,68.511 393.264,68.766 C393.593,69.021 394.655,69.599 395.234,69.766 C395.813,69.933 396.485,69.855 396.736,69.766 C396.986,69.677 397.064,69.489 396.736,69.234 C396.407,68.979 395.345,68.401 394.766,68.234 Z M412.000,92.030 C411.755,91.942 411.264,92.077 411.264,92.234 C411.264,92.390 411.755,92.881 412.000,92.970 C412.245,93.058 412.736,92.923 412.736,92.766 C412.736,92.610 412.245,92.119 412.000,92.030 Z M410.736,91.766 C410.981,91.677 410.981,91.323 410.736,91.234 C410.490,91.145 409.510,91.145 409.264,91.234 C409.019,91.323 409.019,91.677 409.264,91.766 C409.510,91.855 410.490,91.855 410.736,91.766 Z M415.736,93.234 C415.490,93.145 414.510,93.145 414.264,93.234 C414.019,93.323 414.019,93.677 414.264,93.766 C414.510,93.855 415.490,93.855 415.736,93.766 C415.981,93.677 415.981,93.323 415.736,93.234 Z M417.264,94.234 C417.019,94.323 417.019,94.677 417.264,94.766 C417.510,94.855 418.490,94.855 418.736,94.766 C418.981,94.677 418.981,94.323 418.736,94.234 C418.490,94.145 417.510,94.145 417.264,94.234 Z M422.000,95.030 C421.755,95.030 421.264,95.610 421.264,95.766 C421.264,95.923 421.755,95.970 422.000,95.970 C422.245,95.970 422.736,95.923 422.736,95.766 C422.736,95.610 422.245,95.030 422.000,95.030 Z"/>
<path fill="#2e6d75" fill-rule="evenodd" d="M523.434,30.516 C525.082,30.152 525.354,30.374 525.649,30.525 C525.944,30.677 526.573,30.441 525.205,31.426 C523.836,32.412 521.572,34.452 517.439,36.439 C513.306,38.426 503.787,41.554 500.408,43.350 C497.028,45.147 499.949,45.497 497.162,47.219 C494.375,48.942 488.103,51.279 483.686,53.686 C479.269,56.093 473.978,59.811 470.659,61.659 C467.341,63.508 466.578,63.912 463.777,64.777 C460.976,65.643 456.292,66.508 453.854,66.854 C451.415,67.200 451.381,67.070 449.146,66.854 C446.912,66.637 444.133,66.533 440.445,65.555 C436.758,64.576 431.759,63.075 427.019,60.981 C422.279,58.887 416.459,55.707 412.007,52.993 C407.556,50.278 402.509,46.410 400.311,44.694 C398.113,42.977 398.996,43.179 398.821,42.694 C398.645,42.210 397.337,40.958 399.257,41.786 C401.177,42.613 407.419,46.262 410.341,47.659 C413.262,49.057 415.697,49.846 416.788,50.169 C417.879,50.492 417.775,50.856 416.888,49.597 C416.001,48.339 412.456,44.032 411.465,42.617 C410.473,41.201 410.893,41.411 410.938,41.105 C410.983,40.798 409.930,39.092 411.736,40.779 C413.541,42.466 419.324,48.928 421.771,51.229 C424.218,53.530 424.105,53.395 426.417,54.583 C428.729,55.771 432.344,57.360 435.644,58.356 C438.943,59.353 444.355,60.097 446.215,60.563 C448.075,61.029 446.792,60.969 446.804,61.153 C446.817,61.336 447.364,61.500 446.291,61.666 C445.219,61.831 441.507,62.021 440.368,62.146 C439.230,62.272 439.558,62.319 439.460,62.417 C439.361,62.515 438.263,62.713 439.779,62.736 C441.295,62.759 445.587,63.080 448.555,62.555 C451.522,62.029 453.772,61.106 457.583,59.583 C461.394,58.061 466.801,55.301 471.419,53.419 C476.037,51.537 481.641,49.807 485.289,48.289 C488.938,46.771 490.970,45.637 493.312,44.312 C495.654,42.987 496.880,41.676 499.341,40.341 C501.801,39.005 506.517,37.065 508.077,36.299 C509.637,35.533 508.658,35.898 508.699,35.742 C508.739,35.586 508.830,35.376 508.320,35.363 C507.810,35.350 508.290,34.821 505.639,35.663 C502.988,36.505 498.349,37.772 492.417,40.417 C486.484,43.061 473.932,49.757 470.044,51.530 C466.157,53.302 469.025,51.400 469.094,51.051 C469.164,50.702 468.175,51.143 470.460,49.436 C472.745,47.728 479.764,42.760 482.806,40.806 C485.848,38.852 485.805,38.805 488.711,37.711 C491.616,36.616 496.670,35.121 500.238,34.238 C503.806,33.354 507.530,32.666 510.118,32.411 C512.705,32.155 513.543,33.021 515.762,32.705 C517.982,32.389 521.786,30.879 523.434,30.516 Z"/>
<path fill="#22a09d" fill-rule="evenodd" d="M405.234,31.264 C405.656,31.176 407.177,31.906 407.766,32.234 C408.355,32.562 408.602,32.648 408.766,33.234 C408.930,33.820 409.006,35.329 408.751,35.751 C408.495,36.173 407.653,35.930 407.234,35.766 C406.814,35.602 406.567,35.266 406.234,34.766 C405.901,34.266 405.401,33.350 405.234,32.766 C405.067,32.182 404.812,31.353 405.234,31.264 Z"/>
<path fill="#22a09d" fill-rule="evenodd" d="M281.108,33.623 C282.749,33.104 281.946,33.728 281.954,33.997 C281.963,34.267 282.104,34.526 281.159,35.241 C280.215,35.956 278.385,37.399 276.289,38.289 C274.193,39.180 270.774,40.066 268.583,40.583 C266.392,41.100 264.236,41.377 263.142,41.392 C262.048,41.407 262.086,40.974 262.020,40.672 C261.955,40.371 261.065,40.176 262.747,39.582 C264.428,38.989 269.050,38.104 272.110,37.110 C275.171,36.117 279.467,34.142 281.108,33.623 Z"/>
<path fill="#0a7473" fill-rule="evenodd" d="M579.417,36.417 C582.361,36.218 583.208,35.764 587.930,36.070 C592.651,36.376 602.256,37.411 607.746,38.254 C613.236,39.098 618.241,40.462 620.870,41.130 C623.499,41.797 622.995,41.957 623.519,42.259 C624.043,42.562 624.015,42.746 624.014,42.943 C624.014,43.140 626.729,43.887 623.516,43.441 C620.303,42.994 608.945,40.882 604.736,40.264 C600.527,39.647 600.065,39.935 598.264,39.736 C596.463,39.537 595.806,39.191 593.930,39.070 C592.054,38.949 590.307,38.830 587.010,39.010 C583.712,39.189 579.441,39.282 574.146,40.146 C568.852,41.011 558.519,43.729 555.241,44.198 C551.962,44.667 554.532,43.357 554.476,42.962 C554.421,42.566 554.172,42.338 554.906,41.825 C555.641,41.312 556.323,40.642 558.882,39.882 C561.442,39.122 566.842,37.842 570.264,37.264 C573.686,36.686 576.472,36.616 579.417,36.417 Z"/>
<path fill="#0a7473" fill-rule="evenodd" d="M545.444,47.525 C546.824,46.936 546.977,47.281 547.322,47.365 C547.668,47.450 548.497,47.353 547.516,48.031 C546.535,48.709 543.881,49.800 541.436,51.436 C538.991,53.072 535.458,55.791 532.847,57.847 C530.237,59.903 528.796,60.963 525.771,63.771 C522.746,66.580 517.020,72.606 514.699,74.699 C512.377,76.791 512.436,76.067 511.841,76.326 C511.245,76.584 511.240,76.364 511.126,76.250 C511.012,76.136 510.380,76.886 511.156,75.641 C511.932,74.396 513.192,71.273 515.781,68.781 C518.370,66.289 524.403,62.649 526.689,60.689 C528.974,58.729 528.377,58.238 529.493,57.021 C530.609,55.804 532.375,54.253 533.383,53.387 C534.390,52.522 534.594,52.244 535.537,51.830 C536.480,51.415 537.390,51.618 539.042,50.901 C540.693,50.184 544.064,48.115 545.444,47.525 Z"/>
<path fill="#22a09d" fill-rule="evenodd" d="M617.775,47.573 C618.508,47.452 617.289,46.621 621.591,47.429 C625.892,48.236 637.760,50.914 643.583,52.417 C649.407,53.920 654.134,55.595 656.530,56.445 C658.927,57.296 657.797,57.191 657.963,57.522 C658.129,57.853 657.918,58.300 657.526,58.431 C657.134,58.562 659.271,59.307 655.610,58.308 C651.950,57.309 641.788,54.005 635.564,52.436 C629.341,50.867 621.331,49.609 618.269,48.895 C615.208,48.182 617.276,48.375 617.193,48.155 C617.111,47.935 617.043,47.694 617.775,47.573 Z"/>
<path fill="#8a9140" fill-rule="evenodd" d="M82.419,18.419 C85.672,17.961 88.386,18.100 89.877,18.099 C91.368,18.097 91.041,18.212 91.368,18.411 C91.694,18.610 93.686,18.818 91.835,19.293 C89.984,19.768 83.393,20.816 80.262,21.262 C77.130,21.707 74.640,21.899 73.048,21.967 C71.456,22.034 71.156,21.852 70.709,21.666 C70.261,21.479 68.410,21.388 70.362,20.847 C72.314,20.306 79.167,18.877 82.419,18.419 Z"/>
<path fill="#8a9140" fill-rule="evenodd" d="M304.249,27.249 C304.666,26.999 306.334,26.999 306.751,27.249 C307.168,27.499 307.168,28.501 306.751,28.751 C306.334,29.001 304.666,29.001 304.249,28.751 C303.832,28.501 303.832,27.499 304.249,27.249 Z"/>
<path fill="#60682d" fill-rule="evenodd" d="M91.417,37.417 C94.709,36.899 92.885,36.978 94.958,37.099 C97.032,37.220 101.164,37.679 103.856,38.144 C106.548,38.609 108.428,38.905 111.110,39.890 C113.792,40.874 116.884,42.283 119.949,44.051 C123.014,45.820 126.843,48.990 129.500,50.500 C132.157,52.009 134.130,52.536 135.892,53.108 C137.654,53.680 137.731,53.793 140.070,53.930 C142.410,54.067 147.016,54.159 149.930,53.930 C152.844,53.701 154.924,53.591 157.555,52.555 C160.185,51.518 162.097,49.263 165.711,47.711 C169.325,46.158 175.845,44.178 179.238,43.238 C182.631,42.298 183.148,42.239 186.070,42.070 C188.993,41.902 194.250,41.774 196.774,42.226 C199.298,42.679 199.131,43.869 201.214,44.786 C203.297,45.703 206.662,46.505 209.270,47.730 C211.879,48.954 214.889,51.111 216.866,52.134 C218.844,53.156 219.571,53.096 221.134,53.866 C222.697,54.637 224.897,55.858 226.244,56.756 C227.591,57.654 227.090,58.636 229.217,59.255 C231.343,59.874 235.779,60.420 239.002,60.469 C242.225,60.519 245.458,60.203 248.555,59.555 C251.651,58.906 254.858,57.682 257.581,56.581 C260.304,55.480 263.225,54.090 264.891,52.949 C266.558,51.807 266.508,50.360 267.579,49.731 C268.649,49.102 269.428,49.973 271.314,49.174 C273.200,48.375 277.577,45.511 278.895,44.938 C280.213,44.365 279.335,45.353 279.221,45.736 C279.107,46.118 280.554,44.831 278.210,47.234 C275.865,49.636 268.411,57.248 265.153,60.153 C261.894,63.057 261.500,63.167 258.659,64.659 C255.819,66.152 251.242,68.076 248.108,69.108 C244.974,70.140 241.997,70.580 239.856,70.851 C237.715,71.123 237.382,71.069 235.264,70.736 C233.146,70.403 229.823,69.844 227.146,68.854 C224.470,67.864 222.044,66.782 219.204,64.796 C216.364,62.810 211.235,57.512 210.105,56.938 C208.975,56.365 212.052,60.379 212.423,61.355 C212.795,62.330 212.460,62.546 212.333,62.790 C212.206,63.035 212.761,63.911 211.663,62.823 C210.564,61.734 207.494,57.920 205.742,56.258 C203.990,54.595 203.217,53.950 201.150,52.850 C199.084,51.749 195.889,50.396 193.344,49.656 C190.800,48.916 188.562,48.476 185.882,48.411 C183.202,48.345 179.919,48.840 177.264,49.264 C174.610,49.688 172.998,49.498 169.955,50.955 C166.912,52.412 162.340,55.674 159.007,58.007 C155.674,60.341 152.482,63.315 149.956,64.956 C147.431,66.597 145.691,67.191 143.854,67.854 C142.016,68.516 141.047,68.764 138.930,68.930 C136.812,69.096 133.234,69.076 131.149,68.851 C129.064,68.626 128.205,68.295 126.419,67.581 C124.634,66.866 123.242,66.425 120.436,64.564 C117.630,62.704 112.434,58.399 109.583,56.417 C106.732,54.434 105.331,53.669 103.331,52.669 C101.331,51.669 100.329,51.171 97.583,50.417 C94.837,49.663 90.093,48.525 86.854,48.146 C83.614,47.768 81.581,47.797 78.146,48.146 C74.712,48.496 72.751,48.376 66.245,50.245 C59.740,52.115 43.785,57.903 39.113,59.363 C34.442,60.824 38.401,59.191 38.217,59.008 C38.033,58.824 37.858,58.584 38.011,58.261 C38.163,57.938 37.358,58.004 39.132,57.070 C40.907,56.137 44.730,54.719 48.659,52.659 C52.589,50.600 58.287,46.787 62.711,44.711 C67.135,42.635 70.419,41.419 75.204,40.204 C79.988,38.988 88.124,37.934 91.417,37.417 Z M198.264,47.234 C198.103,47.396 198.603,47.896 199.015,47.985 C199.427,48.073 200.574,47.928 200.736,47.766 C200.897,47.604 200.397,47.104 199.985,47.015 C199.573,46.927 198.426,47.072 198.264,47.234 Z M201.264,48.234 C200.978,48.359 200.847,48.599 201.264,48.766 C201.681,48.933 202.604,48.734 203.766,49.234 C204.928,49.734 207.239,51.344 208.234,51.766 C209.229,52.188 209.647,52.021 209.736,51.766 C209.824,51.511 209.261,50.656 208.766,50.234 C208.271,49.812 207.730,49.604 206.766,49.234 C205.803,48.864 203.902,48.182 202.985,48.015 C202.068,47.849 201.551,48.109 201.264,48.234 Z M210.264,52.234 C210.019,52.323 210.019,52.677 210.264,52.766 C210.510,52.855 211.490,52.855 211.736,52.766 C211.981,52.677 211.981,52.323 211.736,52.234 C211.490,52.145 210.510,52.145 210.264,52.234 Z"/>
<path fill="#8a9140" fill-rule="evenodd" d="M336.419,42.419 C338.429,42.133 340.867,41.939 342.930,42.070 C344.993,42.201 347.070,42.763 348.796,43.204 C350.523,43.644 351.966,44.120 353.289,44.711 C354.613,45.301 356.147,46.318 356.739,46.746 C357.331,47.174 356.952,47.172 356.843,47.281 C356.734,47.389 356.960,47.546 356.087,47.398 C355.213,47.251 353.462,46.786 351.602,46.398 C349.743,46.010 348.496,45.276 344.930,45.070 C341.364,44.864 332.698,45.264 330.206,45.163 C327.714,45.062 329.868,44.693 329.979,44.464 C330.090,44.235 329.796,44.129 330.869,43.788 C331.943,43.447 334.409,42.705 336.419,42.419 Z"/>
<path fill="#60682d" fill-rule="evenodd" d="M587.417,44.417 C591.203,44.045 592.418,43.887 595.971,44.029 C599.525,44.170 605.498,44.863 608.736,45.264 C611.974,45.665 614.171,46.123 615.399,46.437 C616.627,46.751 616.122,46.825 616.103,47.146 C616.085,47.468 615.807,48.081 615.287,48.364 C614.768,48.648 614.381,48.897 612.988,48.848 C611.595,48.799 609.423,48.207 606.930,48.070 C604.437,47.934 601.306,47.830 598.029,48.029 C594.751,48.228 591.696,48.530 587.264,49.264 C582.832,49.999 575.528,51.361 571.436,52.436 C567.344,53.510 565.609,54.443 562.711,55.711 C559.812,56.979 556.593,58.593 554.044,60.044 C551.495,61.495 549.462,62.962 547.417,64.417 C545.371,65.871 544.648,66.148 541.771,68.771 C538.894,71.394 533.623,77.123 530.153,80.153 C526.682,83.182 524.141,84.974 520.949,86.949 C517.757,88.923 513.728,90.728 511.000,92.000 C508.272,93.272 507.294,93.794 504.583,94.583 C501.873,95.373 497.476,96.346 494.736,96.736 C491.996,97.125 489.546,96.970 488.142,96.920 C486.738,96.870 486.612,96.617 486.313,96.437 C486.015,96.256 484.128,96.801 486.352,95.838 C488.577,94.875 495.652,92.567 499.659,90.659 C503.667,88.752 507.222,86.555 510.395,84.395 C513.569,82.236 515.959,80.126 518.701,77.701 C521.443,75.276 522.728,73.228 526.847,69.847 C530.967,66.467 539.106,60.273 543.417,57.417 C547.727,54.561 549.340,54.173 552.711,52.711 C556.082,51.249 560.219,49.719 563.644,48.644 C567.068,47.568 569.295,46.961 573.257,46.257 C577.219,45.552 583.631,44.788 587.417,44.417 Z"/>
<path fill="#8a9140" fill-rule="evenodd" d="M382.264,50.234 C382.356,49.976 383.349,50.067 383.766,50.234 C384.183,50.401 384.599,50.817 384.766,51.234 C384.933,51.651 385.024,52.644 384.766,52.736 C384.508,52.827 383.636,52.198 383.219,51.781 C382.802,51.364 382.173,50.492 382.264,50.234 Z"/>
<path fill="#60682d" fill-rule="evenodd" d="M178.426,55.426 C181.345,55.035 185.955,54.854 188.930,55.070 C191.905,55.286 193.335,55.665 196.278,56.722 C199.220,57.780 202.848,59.152 206.583,61.417 C210.318,63.682 215.882,68.451 218.688,70.312 C221.494,72.173 221.847,71.986 223.419,72.581 C224.991,73.176 226.203,73.513 228.120,73.880 C230.038,74.247 232.489,74.809 234.924,74.783 C237.359,74.758 238.934,74.737 242.729,73.729 C246.523,72.720 255.113,69.482 257.689,68.732 C260.265,67.982 258.223,68.927 258.186,69.229 C258.148,69.531 258.563,69.652 257.463,70.544 C256.362,71.437 253.445,73.459 251.583,74.583 C249.721,75.707 248.034,76.534 246.289,77.289 C244.545,78.045 243.664,78.520 241.115,79.115 C238.567,79.710 233.977,80.755 231.000,80.860 C228.023,80.965 226.051,80.259 223.254,79.746 C220.458,79.232 218.672,79.161 214.223,77.777 C209.773,76.394 201.251,72.726 196.557,71.443 C191.863,70.160 189.506,70.006 186.061,70.080 C182.615,70.153 179.276,70.946 175.885,71.885 C172.493,72.823 168.882,74.382 165.711,75.711 C162.539,77.039 160.320,78.653 156.856,79.856 C153.393,81.059 149.361,82.450 144.930,82.930 C140.498,83.409 136.467,83.843 130.266,82.734 C124.066,81.624 113.392,77.350 107.726,76.274 C102.061,75.197 98.943,76.034 96.274,76.274 C93.605,76.513 93.475,76.975 91.711,77.711 C89.946,78.446 88.304,79.138 85.686,80.686 C83.067,82.234 79.004,85.171 76.000,87.000 C72.996,88.829 70.363,90.363 67.659,91.659 C64.956,92.956 62.578,93.912 59.777,94.777 C56.976,95.643 54.812,96.321 50.854,96.854 C46.895,97.386 40.600,98.018 36.029,97.971 C31.458,97.925 26.855,97.145 23.426,96.574 C19.998,96.002 17.744,95.256 15.458,94.542 C13.172,93.828 11.615,93.218 9.711,92.289 C7.806,91.360 5.123,90.007 4.032,88.968 C2.941,87.929 3.157,86.891 3.165,86.057 C3.172,85.224 0.700,83.546 4.076,83.967 C7.452,84.388 18.412,87.605 23.419,88.581 C28.426,89.557 30.897,89.798 34.118,89.825 C37.338,89.852 40.098,89.216 42.743,88.743 C45.389,88.271 47.622,87.788 49.990,86.990 C52.359,86.192 54.429,85.429 56.956,83.956 C59.483,82.483 62.516,80.516 65.153,78.153 C67.789,75.789 70.560,71.893 72.773,69.773 C74.987,67.654 76.155,66.821 78.436,65.436 C80.717,64.050 84.022,62.355 86.461,61.461 C88.900,60.566 91.005,60.289 93.070,60.070 C95.136,59.851 96.820,59.870 98.854,60.146 C100.887,60.423 103.319,61.015 105.270,61.730 C107.222,62.445 108.434,63.066 110.564,64.436 C112.694,65.806 115.568,68.432 118.051,69.949 C120.534,71.466 123.278,72.722 125.461,73.539 C127.643,74.357 128.769,74.656 131.146,74.854 C133.524,75.051 136.668,75.286 139.726,74.726 C142.785,74.167 145.337,73.837 149.497,71.497 C153.657,69.157 161.032,63.032 164.686,60.686 C168.339,58.339 169.129,58.296 171.419,57.419 C173.709,56.543 175.508,55.818 178.426,55.426 Z"/>
<path fill="#8a9140" fill-rule="evenodd" d="M31.219,59.249 C32.464,59.082 33.316,59.981 33.736,60.234 C34.155,60.487 34.194,60.474 33.736,60.766 C33.277,61.058 31.774,61.779 30.985,61.985 C30.196,62.190 29.662,62.000 29.000,62.000 C28.338,62.000 27.471,62.112 27.015,61.985 C26.559,61.857 25.564,61.690 26.264,61.234 C26.965,60.778 29.974,59.416 31.219,59.249 Z"/>
<path fill="#8a9140" fill-rule="evenodd" d="M338.929,63.948 C339.399,63.335 340.099,63.269 340.962,63.260 C341.825,63.250 341.569,62.801 344.108,63.892 C346.647,64.983 352.762,67.738 356.194,69.806 C359.626,71.874 362.190,73.976 364.701,76.299 C367.211,78.622 369.233,81.767 371.258,83.742 C373.282,85.718 374.880,86.787 376.847,88.153 C378.815,89.518 380.656,90.714 383.063,91.937 C385.470,93.160 389.850,94.741 391.287,95.491 C392.725,96.240 391.927,96.197 391.689,96.434 C391.451,96.672 391.200,96.932 389.860,96.918 C388.521,96.903 386.178,96.951 383.653,96.347 C381.129,95.742 377.475,94.492 374.711,93.289 C371.946,92.087 369.042,89.852 367.068,89.130 C365.094,88.408 363.759,89.215 362.867,88.955 C361.975,88.695 362.055,88.252 361.717,87.571 C361.379,86.890 362.099,86.323 360.838,84.869 C359.578,83.415 356.134,80.484 354.153,78.847 C352.171,77.211 351.436,76.564 348.949,75.051 C346.461,73.539 341.030,71.123 339.229,69.771 C337.428,68.419 338.192,67.910 338.142,66.939 C338.092,65.969 338.459,64.561 338.929,63.948 Z"/>
<path fill="#8a9140" fill-rule="evenodd" d="M193.249,75.249 C193.835,74.996 195.849,75.067 196.766,75.234 C197.683,75.401 198.420,75.830 198.751,76.249 C199.082,76.669 199.337,77.498 198.751,77.751 C198.165,78.004 196.151,77.933 195.234,77.766 C194.317,77.599 193.580,77.170 193.249,76.751 C192.918,76.331 192.663,75.502 193.249,75.249 Z"/>
<path fill="#8a9140" fill-rule="evenodd" d="M543.236,76.750 C545.898,74.906 543.837,76.596 543.893,76.769 C543.948,76.943 544.601,76.635 543.569,77.790 C542.537,78.946 539.866,81.904 537.701,83.701 C535.535,85.498 532.186,87.600 530.576,88.571 C528.966,89.542 528.622,89.447 528.042,89.527 C527.462,89.607 527.115,89.333 527.094,89.051 C527.074,88.770 525.229,89.888 527.919,87.838 C530.609,85.787 540.573,78.595 543.236,76.750 Z"/>
<path fill="#8a9140" fill-rule="evenodd" d="M111.419,82.419 C113.724,82.150 117.041,82.136 118.724,82.276 C120.407,82.417 120.990,82.935 121.516,83.262 C122.043,83.589 122.784,84.087 121.884,84.239 C120.985,84.392 118.691,83.974 116.118,84.175 C113.545,84.376 109.331,84.759 106.445,85.445 C103.560,86.132 100.231,87.890 98.806,88.292 C97.382,88.693 97.802,88.177 97.898,87.855 C97.994,87.533 98.218,87.020 99.384,86.360 C100.549,85.699 102.886,84.549 104.892,83.892 C106.898,83.235 109.114,82.688 111.419,82.419 Z"/>
<path fill="#60682d" fill-rule="evenodd" d="M475.264,87.234 C475.759,87.072 478.240,86.927 478.985,87.015 C479.730,87.104 480.231,87.604 479.736,87.766 C479.241,87.928 476.760,88.073 476.015,87.985 C475.270,87.896 474.769,87.396 475.264,87.234 Z"/>
<path fill="#60682d" fill-rule="evenodd" d="M466.264,88.234 C466.759,88.072 469.240,87.927 469.985,88.015 C470.730,88.104 471.231,88.604 470.736,88.766 C470.241,88.928 467.760,89.073 467.015,88.985 C466.270,88.896 465.769,88.396 466.264,88.234 Z"/>
<path fill="#ae562c" fill-rule="evenodd" d="M322.417,13.417 C326.392,13.107 332.143,12.613 337.854,13.146 C343.564,13.679 351.324,15.135 356.678,16.614 C362.033,18.094 366.494,20.388 369.979,22.021 C373.463,23.655 374.630,24.370 377.583,26.417 C380.537,28.463 385.093,32.073 387.701,34.299 C390.309,36.525 389.538,35.129 393.229,39.771 C396.920,44.413 405.924,57.243 409.847,62.153 C413.771,67.062 413.842,66.825 416.771,69.229 C419.701,71.633 424.267,74.652 427.424,76.576 C430.581,78.500 434.390,79.936 435.713,80.772 C437.036,81.609 435.876,81.499 435.364,81.593 C434.852,81.687 434.645,81.990 432.641,81.334 C430.638,80.679 425.875,78.788 423.341,77.659 C420.806,76.531 419.589,75.911 417.436,74.564 C415.282,73.218 412.834,71.499 410.419,69.581 C408.004,67.663 406.418,67.082 402.945,63.055 C399.472,59.028 393.880,50.454 389.581,45.419 C385.282,40.384 380.091,35.576 377.153,32.847 C374.214,30.119 374.200,30.467 371.951,29.049 C369.702,27.631 366.228,25.606 363.659,24.341 C361.091,23.075 358.525,22.142 356.542,21.458 C354.559,20.774 354.710,20.790 351.762,20.238 C348.814,19.686 342.142,18.515 338.854,18.146 C335.565,17.778 335.432,17.647 332.029,18.029 C328.626,18.410 322.319,19.486 318.436,20.436 C314.553,21.386 310.857,22.857 308.730,23.730 C306.603,24.603 306.740,24.740 305.675,25.675 C304.610,26.610 303.691,28.524 302.340,29.340 C300.990,30.156 299.453,29.787 297.571,30.571 C295.688,31.354 294.939,31.439 291.044,34.044 C287.149,36.649 277.788,43.795 274.201,46.201 C270.615,48.608 270.377,48.174 269.524,48.481 C268.671,48.788 269.035,48.332 269.085,48.042 C269.134,47.752 268.293,48.371 269.822,46.740 C271.350,45.109 274.845,41.498 278.258,38.258 C281.671,35.017 287.609,29.609 290.299,27.299 C292.989,24.989 291.711,26.044 294.398,24.398 C297.084,22.751 303.152,18.985 306.419,17.419 C309.687,15.853 311.336,15.669 314.002,15.002 C316.669,14.335 318.442,13.726 322.417,13.417 Z"/>
<path fill="#ae562c" fill-rule="evenodd" d="M3.794,43.082 C4.033,42.726 4.299,42.691 4.761,42.754 C5.223,42.817 3.415,41.528 6.567,43.457 C9.718,45.387 19.411,51.936 23.669,54.331 C27.928,56.725 29.969,57.095 32.118,57.825 C34.266,58.555 35.599,58.333 36.559,58.710 C37.519,59.086 37.850,59.742 37.879,60.082 C37.909,60.423 37.303,60.680 36.735,60.750 C36.168,60.820 37.704,61.520 34.473,60.503 C31.241,59.487 22.313,56.850 17.348,54.652 C12.383,52.454 7.021,48.942 4.685,47.315 C2.348,45.689 3.476,45.600 3.328,44.894 C3.179,44.189 3.555,43.439 3.794,43.082 Z"/>
<path fill="#a5783c" fill-rule="evenodd" d="M200.055,42.821 C200.349,42.645 201.042,42.492 201.675,42.547 C202.309,42.601 201.315,42.060 203.856,43.149 C206.397,44.238 214.406,47.799 216.920,49.080 C219.435,50.361 218.602,50.322 218.943,50.835 C219.283,51.349 219.316,51.951 218.964,52.159 C218.613,52.368 218.449,52.824 216.833,52.086 C215.217,51.347 211.869,48.946 209.270,47.730 C206.671,46.513 202.798,45.474 201.238,44.786 C199.679,44.098 200.109,43.930 199.912,43.603 C199.715,43.275 199.761,42.997 200.055,42.821 Z"/>
<path fill="#a5783c" fill-rule="evenodd" d="M374.234,42.264 C374.989,42.342 377.677,43.572 378.766,44.234 C379.855,44.896 380.271,45.479 380.766,46.234 C381.261,46.989 381.824,48.344 381.736,48.766 C381.647,49.188 380.896,49.188 380.234,48.766 C379.572,48.344 378.433,46.734 377.766,46.234 C377.099,45.734 376.823,46.177 376.234,45.766 C375.645,45.355 374.567,44.350 374.234,43.766 C373.901,43.182 373.479,42.186 374.234,42.264 Z"/>
<path fill="#a5783c" fill-rule="evenodd" d="M551.376,42.598 C553.474,41.704 552.279,42.519 552.604,42.647 C552.928,42.774 553.215,43.062 553.322,43.365 C553.429,43.669 553.485,44.047 553.246,44.468 C553.007,44.889 553.301,45.343 551.887,45.891 C550.472,46.440 546.799,47.003 544.758,47.758 C542.718,48.514 540.756,50.041 539.645,50.423 C538.535,50.806 538.033,50.454 538.094,50.051 C538.156,49.649 537.801,49.252 540.014,48.010 C542.228,46.767 549.278,43.492 551.376,42.598 Z"/>
<path fill="#ae562c" fill-rule="evenodd" d="M527.944,56.987 C528.688,56.817 528.596,57.450 528.471,57.986 C528.346,58.521 528.891,58.815 527.195,60.200 C525.500,61.586 521.473,63.640 518.299,66.299 C515.125,68.958 510.881,73.714 508.153,76.153 C505.424,78.591 504.032,79.698 501.930,80.930 C499.828,82.161 498.574,82.574 495.542,83.542 C492.509,84.509 487.992,85.992 483.734,86.734 C479.475,87.475 475.422,87.804 469.990,87.990 C464.559,88.177 455.809,88.187 451.146,87.854 C446.483,87.520 444.040,86.541 442.012,85.988 C439.984,85.435 439.498,84.871 438.979,84.536 C438.460,84.200 438.783,84.093 438.900,83.976 C439.018,83.859 436.957,83.371 439.684,83.831 C442.411,84.291 451.550,86.213 455.264,86.736 C458.979,87.259 459.226,87.138 461.971,86.971 C464.717,86.805 468.505,86.339 471.736,85.736 C474.966,85.133 478.313,84.313 481.354,83.354 C484.395,82.395 486.547,81.547 489.981,79.981 C493.415,78.415 498.587,75.754 501.956,73.956 C505.325,72.158 506.519,71.686 510.194,69.194 C513.869,66.703 521.049,61.042 524.007,59.007 C526.966,56.973 527.200,57.157 527.944,56.987 Z"/>
<path fill="#ae562c" fill-rule="evenodd" d="M3.782,59.094 C4.270,58.750 3.925,58.303 6.031,59.050 C8.137,59.798 13.557,62.457 16.419,63.581 C19.281,64.705 19.769,65.065 23.204,65.796 C26.638,66.528 33.920,67.628 37.029,67.971 C40.137,68.314 38.761,68.252 41.854,67.854 C44.946,67.456 50.367,66.948 55.583,65.583 C60.799,64.218 70.089,60.597 73.150,59.664 C76.210,58.732 74.063,59.687 73.947,59.990 C73.832,60.293 76.529,59.560 72.457,61.481 C68.384,63.401 54.934,69.605 49.513,71.513 C44.092,73.421 43.844,72.687 39.930,72.930 C36.016,73.173 30.473,73.337 26.029,72.971 C21.584,72.606 16.835,71.665 13.264,70.736 C9.693,69.807 6.204,68.129 4.604,67.396 C3.004,66.663 3.918,66.915 3.664,66.336 C3.411,65.756 3.178,64.790 3.085,63.920 C2.991,63.051 2.987,61.923 3.104,61.118 C3.220,60.314 3.294,59.439 3.782,59.094 Z"/>
<path fill="#a5783c" fill-rule="evenodd" d="M228.249,58.249 C228.499,57.999 229.501,57.999 229.751,58.249 C230.001,58.499 230.001,59.501 229.751,59.751 C229.501,60.001 228.499,60.001 228.249,59.751 C227.999,59.501 227.999,58.499 228.249,58.249 Z"/>
<path fill="#a5783c" fill-rule="evenodd" d="M478.222,75.737 C480.240,75.081 478.938,75.815 479.136,76.012 C479.333,76.209 479.441,76.588 479.406,76.921 C479.371,77.253 479.285,77.619 478.927,78.009 C478.569,78.398 478.413,78.760 477.258,79.258 C476.103,79.756 473.669,80.588 471.998,80.998 C470.326,81.407 468.226,81.718 467.228,81.713 C466.230,81.708 466.045,81.263 466.012,80.969 C465.979,80.675 464.997,80.822 467.032,79.950 C469.067,79.078 476.205,76.393 478.222,75.737 Z"/>
</svg>
